HIERARCHY
ROOT Hips
{
	OFFSET 0.000000 0.000000 0.000000
	CHANNELS 6 Xposition Yposition Zposition Zrotation Yrotation Xrotation 
	JOINT LHipJoint
	{
		OFFSET 0.000000 0.000000 0.000000
		CHANNELS 3 Zrotation Yrotation Xrotation
		JOINT LeftUpLeg
		{
			OFFSET 1.363060 -1.794630 0.839290
			CHANNELS 3 Zrotation Yrotation Xrotation
			JOINT LeftLeg
			{
				OFFSET 2.448110 -6.726130 0.000000
				CHANNELS 3 Zrotation Yrotation Xrotation
				JOINT LeftFoot
				{
					OFFSET 2.562200 -7.039590 0.000000
					CHANNELS 3 Zrotation Yrotation Xrotation
					JOINT LeftToeBase
					{
						OFFSET 0.157640 -0.433110 2.322550
						CHANNELS 3 Zrotation Yrotation Xrotation
						End Site
						{
							OFFSET 0.000000 0.000000 0.000000
						}
					}
				}
			}
		}
	}
	JOINT RHipJoint
	{
		OFFSET 0.000000 0.000000 0.000000
		CHANNELS 3 Zrotation Yrotation Xrotation
		JOINT RightUpLeg
		{
			OFFSET -1.305520 -1.794630 0.839290
			CHANNELS 3 Zrotation Yrotation Xrotation
			JOINT RightLeg
			{
				OFFSET -2.542530 -6.985550 0.000000
				CHANNELS 3 Zrotation Yrotation Xrotation
				JOINT RightFoot
				{
					OFFSET -2.568260 -7.056230 0.000000
					CHANNELS 3 Zrotation Yrotation Xrotation
					JOINT RightToeBase
					{
						OFFSET -0.164730 -0.452590 2.363150
						CHANNELS 3 Zrotation Yrotation Xrotation
						End Site
						{
							OFFSET 0.000000 0.000000 0.000000
						}
					}
				}
			}
		}
	}
}
MOTION
Frames: 11
Frame Time: 0.008333
-8.966890 17.024833 -1.390520 166.651639 89.478274 175.545502 -9.397730 1.441417 5.529447 -14.616437 -9.572375 -28.089889 -2.834612 -0.235809 12.470723 -0.389456 -3.497240 0.468331 -0.175700 0.000001 -17.545300 10.583949 -4.690341 -1.546149 5.459238 -18.037028 -1.943897 0.558846 -2.860681 37.084681 0.312769 17.791585 23.954337 8.957800 -0.000000 -77.441300
-8.798438 17.016167 -1.377160 147.742207 89.337798 156.484107 -9.167862 1.640752 5.454881 -15.317219 -9.340618 -27.814795 -2.889764 -0.137734 13.473607 -0.387800 -3.504376 0.408584 -0.174400 0.000001 -15.484200 10.986414 -4.543408 -1.602736 4.686478 -18.622149 -3.095123 0.304811 -2.912583 39.637415 0.105656 17.571993 25.799931 9.425500 -0.000000 -75.503301
-8.634281 17.008439 -1.365475 135.176998 89.056793 143.794361 -9.011150 1.741935 5.402913 -15.926472 -9.330149 -27.493239 -2.916200 -0.057088 14.472333 -0.367938 -3.384123 0.147657 -0.150600 0.000000 -13.593200 11.270734 -4.426282 -1.680076 4.008561 -19.109490 -4.277794 0.093267 -2.986211 42.173215 -0.105603 16.863273 27.408045 9.544800 -0.000000 -73.092001
-8.474372 17.001997 -1.355707 126.703526 88.745664 135.214619 -8.893754 1.801436 5.378378 -16.443516 -9.525578 -27.118188 -2.921897 0.013425 15.418241 -0.324316 -3.119054 -0.296625 -0.107000 -0.000000 -11.935900 11.477724 -4.291360 -1.777143 3.414592 -19.484782 -5.471912 -0.096980 -3.066839 44.689164 -0.315983 15.631563 28.691295 9.247600 -0.000000 -70.380501
-8.318525 16.997175 -1.348282 120.459947 88.448175 128.878582 -8.796335 1.834177 5.373502 -16.873913 -9.881335 -26.689345 -2.914168 0.073133 16.294300 -0.259902 -2.733384 -0.892381 -0.052300 0.000000 -10.550000 11.634227 -4.136739 -1.884979 2.910818 -19.735955 -6.671848 -0.273852 -3.153408 47.164377 -0.525286 13.863036 29.571001 8.503100 -0.000000 -67.620600
-8.166462 16.994231 -1.343645 115.234558 88.187476 123.573062 -8.715345 1.844263 5.377612 -17.228342 -10.329818 -26.217703 -2.897722 0.121411 17.093973 -0.179835 -2.265612 -1.599779 0.003200 -0.000000 -9.447800 11.750775 -3.970842 -1.992713 2.504820 -19.848912 -7.877333 -0.441638 -3.247599 49.576561 -0.734167 11.586932 29.979032 7.332500 0.000001 -65.006400
-8.017772 16.993340 -1.341853 110.125053 87.969960 118.394840 -8.649875 1.835363 5.380897 -17.526989 -10.803681 -25.711177 -2.876754 0.157624 17.802772 -0.088828 -1.746178 -2.371609 0.051500 0.000000 -8.625600 11.834537 -3.801227 -2.090625 2.189332 -19.813692 -9.090161 -0.603562 -3.350614 51.907560 -0.942467 8.888555 29.855399 5.815399 0.000000 -62.591100
-7.872066 16.994564 -1.342923 104.547693 87.794610 112.761279 -8.602413 1.812039 5.374233 -17.786647 -11.232226 -25.183891 -2.854226 0.182103 18.411409 0.007685 -1.208500 -3.161587 0.087200 0.000000 -8.070400 11.889088 -3.634648 -2.168308 1.959280 -19.618163 -10.313106 -0.761544 -3.462170 54.137687 -1.148707 5.898500 29.164098 4.080400 -0.000000 -60.345200
-7.728915 16.997920 -1.346631 98.095843 87.650250 106.268762 -8.575934 1.779716 5.350341 -18.021172 -11.552600 -24.652227 -2.832343 0.195666 18.913446 0.104176 -0.683386 -3.927841 0.108100 0.000001 -7.762501 11.917002 -3.476094 -2.216291 1.807939 -19.253324 -11.549749 -0.915861 -3.580416 56.246129 -1.349765 2.781792 27.899740 2.287500 0.000000 -58.171900
-7.587944 17.003310 -1.352638 90.558152 87.515183 98.709695 -8.572579 1.744530 5.304533 -18.240429 -11.716901 -24.131818 -2.812771 0.199525 19.304600 0.195409 -0.197488 -4.635561 0.114900 -0.000000 -7.674900 11.920814 -3.328184 -2.226567 1.726669 -18.713698 -12.802266 -1.065154 -3.701780 58.211248 -1.541098 -0.283082 26.095062 0.602400 -0.000001 -55.946100
-7.448834 17.010615 -1.360463 82.004881 87.360628 90.158781 -8.592700 1.713349 5.234577 -18.450286 -11.694385 -23.636129 -2.796910 0.195316 19.583838 0.276669 0.226120 -5.259460 0.110500 0.000000 -7.772500 11.903856 -3.190747 -2.193342 1.704571 -17.999682 -14.070889 -1.206534 -3.821049 60.011498 -1.717141 -3.128992 23.821167 -0.833001 -0.000000 -53.551300
